<svg id="Capa_1" enable-background="new 0 0 512 512" height="512" viewBox="0 0 512 512" width="512" xmlns="http://www.w3.org/2000/svg"><path d="m268.751 241.829-.01.12-2.41 48.21-188.06 188.07-36.39-8.1-.04-.17-8.06-36.23 188.06-188.06z" fill="#ffae3b"/><path d="m268.741 241.949-2.41 48.21-188.06 188.07-36.39-8.1-.04-.17z" fill="#ff7127"/><path d="m78.271 478.229-11.44 11.43c-6 6-13.52 10.28-21.76 12.36l-38.85 9.83c-1.7.43-3.51-.07-4.76-1.31-1.24-1.25-1.74-3.06-1.31-4.77l9.83-38.85c2.08-8.23 6.36-15.75 12.36-21.75l11.44-11.44 22.06 22.07z" fill="#07485e"/><path d="m475.779 206.131c-32.576 32.576-79.04 42.794-120.279 30.618l-21.51 21.51-54.977-26.693-26.135-54.419 21.213-21.213c-12.657-41.762-2.277-89.053 31.134-121.884 46.789-45.983 123.715-45.014 170.688.615 48.593 47.192 47.681 123.651-.134 171.466z" fill="#ffdd7d"/><path d="m475.779 206.131c-32.576 32.576-79.04 42.794-120.279 30.618l-21.51 21.51-54.977-26.693 196.9-196.9c48.593 47.191 47.681 123.65-.134 171.465z" fill="#ffae3b"/><path d="m455.782 135.915c.636-4.639-.948-9.305-4.257-12.615l-64.24-64.24c-3.309-3.309-7.976-4.893-12.615-4.257-4.639.622-8.719 3.373-11.031 7.439l-24.628 43.31c-8.259 14.51-8.273 31.975-.905 46.259l-62.352 62.352 21.213 21.213 62.536-62.536c14.149 7.007 31.268 6.845 45.53-1.266l43.31-24.629c4.066-2.311 6.817-6.391 7.439-11.03zm-65.577 9.588c-7.205 4.094-16.313 2.878-22.161-2.97-5.841-5.841-7.057-14.948-2.963-22.154l14.899-26.198 36.416 36.416z" fill="#fff"/><path d="m448.344 146.946-43.31 24.629c-14.262 8.11-31.381 8.273-45.53 1.266l-62.536 62.536-10.882-10.882 81.96-81.96c5.848 5.848 14.955 7.064 22.161 2.97l26.191-14.906-18.208-18.208 21.213-21.213 32.124 32.124c3.309 3.309 4.893 7.976 4.257 12.615-.624 4.637-3.375 8.717-7.44 11.029z" fill="#f3eee9"/><path d="m333.991 258.258-61.49 61.49c-7.849 7.849-20.57 7.87-28.411.028l-52.729-52.729c-7.835-7.835-7.821-20.563.028-28.411l61.49-61.49z" fill="#f3eee9"/><path d="m333.991 258.258-61.49 61.49c-7.849 7.849-20.57 7.87-28.411.028l-26.644-26.644 75.71-75.71z" fill="#e9dfda"/><path d="m316.638 310.924c-5.862 5.862-15.358 5.855-21.213 0l-95.212-95.212c-5.855-5.855-5.862-15.351 0-21.213 5.855-5.855 15.358-5.855 21.213 0l95.212 95.212c5.855 5.854 5.855 15.358 0 21.213z" fill="#e9dfda"/><path d="m316.638 310.924c-5.862 5.862-15.358 5.855-21.213 0l-47.885-47.885 21.213-21.213 47.885 47.885c5.855 5.854 5.855 15.358 0 21.213z" fill="#dad0cb"/><path d="m78.271 478.229-11.44 11.43c-6 6-13.52 10.28-21.76 12.36l-38.85 9.83c-1.7.43-3.51-.07-4.76-1.31l54.38-54.74z" fill="#002438"/></svg>